<svg width="23" height="23" viewBox="0 0 23 23" fill="none" xmlns="http://www.w3.org/2000/svg">
<g clip-path="url(#clip0_2_1285)">
<path d="M10.5417 3.83325H3.83341C3.32508 3.83325 2.83757 4.03519 2.47813 4.39463C2.11868 4.75408 1.91675 5.24159 1.91675 5.74992V19.1666C1.91675 19.6749 2.11868 20.1624 2.47813 20.5219C2.83757 20.8813 3.32508 21.0833 3.83341 21.0833H17.2501C17.7584 21.0833 18.2459 20.8813 18.6054 20.5219C18.9648 20.1624 19.1667 19.6749 19.1667 19.1666V12.4583" stroke="#7A9CA5" stroke-width="2" stroke-linecap="round" stroke-linejoin="round"/>
<path d="M17.7292 2.39573C18.1105 2.01448 18.6276 1.80029 19.1667 1.80029C19.7059 1.80029 20.223 2.01448 20.6042 2.39573C20.9855 2.77697 21.1997 3.29406 21.1997 3.83322C21.1997 4.37239 20.9855 4.88948 20.6042 5.27073L11.5001 14.3749L7.66675 15.3332L8.62508 11.4999L17.7292 2.39573Z" stroke="#7A9CA5" stroke-width="2" stroke-linecap="round" stroke-linejoin="round"/>
</g>
<defs>
<clipPath id="clip0_2_1285">
<rect width="23" height="23" fill="white"/>
</clipPath>
</defs>
</svg>
